<?xml version="1.0" encoding="UTF-8" standalone="no"?>
<svg
   xmlns:dc="http://purl.org/dc/elements/1.1/"
   xmlns:cc="http://creativecommons.org/ns#"
   xmlns:rdf="http://www.w3.org/1999/02/22-rdf-syntax-ns#"
   xmlns:svg="http://www.w3.org/2000/svg"
   xmlns="http://www.w3.org/2000/svg"
   viewBox="0 0 362.3772 362.3772"
   version="1.1"
   class="navbar-icon"
   id="navbar-icon">
  <g
     id="svg-g"
     transform="translate(-74.801398,-74.811398)">
    <path
       class="navbar-icon-g"
       id="path1"
       d="M 332.56,155.12 H 179.44 a 24.35,24.35 0 0 0 -24.32,24.31 v 153.13 a 24.34,24.34 0 0 0 24.32,24.31 h 153.12 a 24.34,24.34 0 0 0 24.32,-24.31 V 179.43 A 24.35,24.35 0 0 0 332.56,155.12 Z M 343.5,332.56 A 11,11 0 0 1 332.56,343.5 H 179.44 A 11,11 0 0 1 168.5,332.56 V 179.43 a 11,11 0 0 1 10.94,-10.94 h 153.12 a 11,11 0 0 1 10.94,10.94 z" />
    <path
       class="navbar-icon-g"
       id="path2"
       d="m 430.25,234.08 a 6.69,6.69 0 0 0 0,-13.38 h -40.17 v -43.83 h 40.17 a 6.69,6.69 0 1 0 0,-13.38 h -40.73 a 46.84,46.84 0 0 0 -41,-41 V 81.76 a 6.69,6.69 0 1 0 -13.38,0 v 40.15 H 291.29 V 81.76 a 6.69,6.69 0 1 0 -13.37,0 v 40.15 H 234.08 V 81.76 a 6.69,6.69 0 1 0 -13.37,0 v 40.15 H 176.87 V 81.76 a 6.69,6.69 0 1 0 -13.38,0 v 40.71 a 46.84,46.84 0 0 0 -41,41 H 81.75 a 6.69,6.69 0 0 0 0,13.38 h 40.17 V 220.7 H 81.75 a 6.69,6.69 0 1 0 0,13.38 h 40.17 v 43.83 H 81.75 a 6.69,6.69 0 0 0 0,13.38 h 40.17 v 43.84 H 81.75 a 6.69,6.69 0 1 0 0,13.37 h 40.73 a 46.83,46.83 0 0 0 41,41 v 40.72 a 6.69,6.69 0 1 0 13.38,0 v -40.14 h 43.84 v 40.16 a 6.69,6.69 0 1 0 13.37,0 v -40.16 h 43.84 v 40.16 a 6.69,6.69 0 1 0 13.37,0 v -40.16 h 43.84 v 40.16 a 6.69,6.69 0 1 0 13.38,0 v -40.72 a 46.83,46.83 0 0 0 41,-41 h 40.73 a 6.69,6.69 0 1 0 0,-13.37 h -40.15 v -43.86 h 40.17 a 6.69,6.69 0 0 0 0,-13.38 H 390.08 V 234.08 Z M 376.71,343 A 33.75,33.75 0 0 1 343,376.7 H 169 A 33.75,33.75 0 0 1 135.29,343 V 169 A 33.76,33.76 0 0 1 169,135.29 H 343 A 33.76,33.76 0 0 1 376.71,169 Z" />
    <path
       class="navbar-icon-g"
       id="path3"
       d="m 200.51911,315.84316 c -3.05085,-0.82052 -4.92611,-3.18428 -4.92611,-6.2094 0,-1.99531 54.79353,-111.5641 56.51625,-113.01369 2.19947,-1.85072 5.58554,-1.85072 7.78501,0 1.72271,1.44959 56.51624,111.01838 56.51624,113.01369 0,3.16448 -2.10811,5.6254 -5.42906,6.3376 -3.06454,0.65724 -107.99472,0.53545 -110.46233,-0.1282 z m 76.00613,-12.80905 c 0,-0.38149 -31.94923,-64.08812 -32.14055,-64.08812 -0.19132,0 -32.14056,63.70663 -32.14056,64.08812 0,0.10615 14.46326,0.193 32.14056,0.193 17.6773,0 32.14055,-0.0869 32.14055,-0.193 z m 23.23414,-1.6e-4 c 0,-0.39013 -43.5691,-87.3221 -43.76462,-87.3221 -0.11121,0 -1.20014,2.0048 -2.41983,4.45509 l -2.21762,4.45509 19.65013,39.30254 19.65012,39.30254 h 4.55091 c 2.50301,0 4.55091,-0.087 4.55091,-0.19316 z"/>
  </g>
</svg>
